# xmcd
#
# Track frame offsets: 
#        150
#        12555
#        24802
#        35202
#        48542
#        62347
#        72720
#        84480
#        99747
#        110200
#        123347
#        145267
#        160290
#        171617
#        185590
#
# Disc length: 2701 seconds
#
# Revision: 4
# Processed by: cddbd v1.5.2PL0 Copyright (c) Steve Scherf et al.
# Submitted via: ExactAudioCopy v1.3
#
DISCID=df0a8b0f
DTITLE=Ray Price - Greatest Hits_CD1
DYEAR=1986
DGENRE=Country
TTITLE0=Crazy Arms
TTITLE1=City Lights
TTITLE2=I'll Be There If You Ever Want Me
TTITLE3=Half A Man
TTITLE4=Heartaches By The Number
TTITLE5=Release Me
TTITLE6=My Shoes Keep Walking Back To You
TTITLE7=Soft Rain
TTITLE8=I'll Sail My Ship Alone
TTITLE9=Burning Memories
TTITLE10=Danny Boy
TTITLE11=Touch My Heart
TTITLE12=Crazy
TTITLE13=A Way To Survive
TTITLE14=You're The Best Thing That Ever Happened To Me
EXTD=
EXTT0=
EXTT1=
EXTT2=
EXTT3=
EXTT4=
EXTT5=
EXTT6=
EXTT7=
EXTT8=
EXTT9=
EXTT10=
EXTT11=
EXTT12=
EXTT13=
EXTT14=
PLAYORDER=
